<svg width="58" height="58" viewBox="0 0 58 58" fill="none" xmlns="http://www.w3.org/2000/svg">
<path d="M1.15625 32.8437C0.968747 31.9062 0.874997 30.9688 0.968747 30.125C0.968747 29 1.25 28.0625 1.8125 27.125C2.375 26.0938 3.3125 25.25 4.34375 24.7813C5.375 24.2188 6.6875 24.0312 7.90625 24.2187C9.03125 24.3125 10.1562 24.7813 11.0937 25.4375C11.9375 26 12.6875 26.75 13.3437 27.5938C14.375 29 15.125 30.6875 15.5 32.6563V32.9375C15.6875 34.1563 14.9375 35.2812 13.7187 35.6562C13.5312 35.75 13.3437 35.75 13.1562 35.75C12.4062 35.8438 11.75 35.6562 11.1875 35.1875C10.625 34.7187 10.25 34.1563 10.1562 33.4063C9.96875 32.0938 9.6875 30.9688 9.125 30.125C8.65625 29.2813 7.90625 28.625 7.15625 28.4375C6.875 28.3437 6.5 28.3437 6.21875 28.4375C5.84375 28.5312 5.5625 28.8125 5.375 29.0937C5.09375 29.4687 4.90625 29.8438 4.90625 30.4063C4.8125 30.9688 4.8125 31.5312 4.90625 32.0937C5.09375 33.2187 5.46875 34.5312 6.125 35.8437C6.40625 36.4062 6.78125 37.0625 7.15625 37.7187C7.53125 38.375 8 38.9375 8.375 39.4062C9.40625 40.625 10.3437 41.5625 11.375 42.3125C12.5937 43.1563 13.8125 43.7188 15.0312 43.9063C16.25 44.0938 17.6562 44.0937 19.0625 43.625C20.1875 43.3437 20.8437 43.7188 21.0312 44.2813C21.2187 44.75 20.9375 45.5 19.8125 45.875H19.7187C18.0312 46.4375 16.25 46.625 14.6562 46.3438C13.0625 46.1563 11.375 45.4063 9.78125 44.4688C8.46875 43.625 7.34375 42.5 6.125 41.1875C5.65625 40.625 5.1875 40.0625 4.8125 39.5938L4.625 39.3125C4.0625 38.6563 3.59375 38 3.21875 37.3438C2.09375 35.8438 1.4375 34.3437 1.15625 32.8437Z" fill="#948D7F" fill-opacity="0.87"/>
<path d="M42.7812 51.4063C44.4687 53.5625 51.875 51.4063 53.0937 48.9688C57.9687 39.0313 53.0937 34.7188 53.0937 34.7188L42.7812 36.125C42.7812 36.2188 40.7187 48.7813 42.7812 51.4063Z" fill="#3E4347"/>
<path d="M28.8125 51.4063C27.125 53.5625 19.7187 51.4063 18.5 48.9688C13.625 39.0313 18.5 34.7188 18.5 34.7188L28.8125 36.125C28.8125 36.2188 30.9687 48.7813 28.8125 51.4063Z" fill="#3E4347"/>
<path d="M31.3438 50.75C31.25 51.7813 28.9062 52.3438 26.0937 52.0625C23.2812 51.7813 21.125 50.8438 21.125 49.8125C21.2188 48.7813 23.375 50.0938 26.1875 50.2813C29.0938 50.6563 31.4375 49.8125 31.3438 50.75Z" fill="white"/>
<path d="M40.25 50.75C40.3438 51.7813 42.6875 52.3438 45.5 52.0625C48.3125 51.7813 50.4688 50.8438 50.4688 49.8125C50.375 48.7813 48.2188 50.0938 45.4063 50.2813C42.5 50.6563 40.1563 49.8125 40.25 50.75Z" fill="white"/>
<path d="M35.8146 54.875C37.6896 56.9375 44.1583 56.8438 46.2208 54.875C49.0333 52.0625 48.9396 39.2187 49.0333 33.0312L36.8458 32C36.9396 32 33.4708 52.1563 35.8146 54.875Z" fill="#3E4347"/>
<path d="M36.2187 55.875C34.3437 57.9375 27.875 57.8438 25.8125 55.875C23 53.0625 23.0938 40.2187 23 34.0312L35.1875 33C35.1875 33 38.5625 53.1563 36.2187 55.875Z" fill="#4C5359"/>
<path d="M30.875 39.9688L35.8437 50.4688L40.8125 39.9688H30.875Z" fill="white"/>
<path d="M55.1563 1.0625C52.9063 -0.249999 41.2813 5.84375 38.9375 9.96875L55.7188 19.9063C57.9688 15.875 57.3125 2.28125 55.1563 1.0625Z" fill="#4C5359"/>
<path d="M51.6875 7.25C50.8438 6.78125 44 9.875 42.6875 12.125L52.0625 17.6562C53.2813 15.5 52.4375 7.71875 51.6875 7.25Z" fill="#F7A4A4"/>
<path d="M16.5313 1.0625C14.2813 2.375 13.625 15.7812 15.9687 19.9062L32.75 9.96875C30.5 5.9375 18.6875 -0.25 16.5313 1.0625Z" fill="#4C5359"/>
<path d="M20.0938 7.25C19.25 7.71875 18.4063 15.4063 19.7188 17.6563L29 12.125C27.7813 9.96875 20.8438 6.78125 20.0938 7.25Z" fill="#F7A4A4"/>
<path d="M35.375 7C15.875 7 14 20.6875 14 28.2813C14 31.4688 23.5625 41.3125 35.2813 41.3125C47.0938 41.3125 56.6562 31.4688 56.6562 28.2813C56.6562 20.6875 54.7812 7 35.375 7Z" fill="#A1802A"/>
<path d="M30.4063 25.7187C30.4063 25.7187 28.1563 29.0937 24.0313 28.0625C19.9063 27.0312 19.7188 23 19.7188 23C19.7188 23 21.9687 19.625 26.0937 20.6562C30.2188 21.7812 30.4063 25.7187 30.4063 25.7187Z" fill="#BFFFAB"/>
<path d="M30.375 24.5098C30.375 24.5098 28.4063 26.666 25.6875 26.666C22.7813 26.666 21 22.541 21 22.541C21 22.541 22.9687 20.291 26.4375 21.2285C29.7187 21.9785 30.375 24.5098 30.375 24.5098Z" fill="#6194BD"/>
<path d="M26.9375 23.9375C26.9375 28.5313 24.6875 28.5313 24.6875 23.9375C24.6875 19.3438 26.9375 19.3438 26.9375 23.9375Z" fill="#4C5359"/>
<path d="M41.2812 25.7187C41.2812 25.7187 43.5313 29.0937 47.6563 28.0625C51.7813 27.0312 51.9688 23 51.9688 23C51.9688 23 49.7188 19.625 45.5938 20.6562C41.4688 21.7812 41.2812 25.7187 41.2812 25.7187Z" fill="#BFFFAB"/>
<path d="M42 24.5098C42 24.5098 43.9687 26.666 46.6875 26.666C49.5937 26.666 51.375 22.541 51.375 22.541C51.375 22.541 49.4063 20.291 45.9375 21.2285C42.6563 21.9785 42 24.5098 42 24.5098Z" fill="#7FE6E0"/>
<path d="M44.6562 23.9375C44.6562 28.5313 46.9062 28.5313 46.9062 23.9375C47 19.3438 44.6562 19.3438 44.6562 23.9375Z" fill="#4C5359"/>
<path d="M42.0313 29.4687C40.1563 28.0625 38.0937 23.375 35.8437 23.375C33.5937 23.375 31.4375 28.0625 29.6562 29.4687C26.75 31.7187 18.875 34.25 18.875 34.25C18.875 34.25 27.2187 41.375 35.8437 41.375C44.4687 41.375 52.8125 34.25 52.8125 34.25C52.8125 34.25 44.9375 31.7187 42.0313 29.4687Z" fill="white"/>
<path d="M41.8438 35.8437C41.1875 36.2187 40.3437 36.4062 39.5937 36.4062C38.8437 36.3125 38.0937 36.125 37.5312 35.6562C36.9687 35.1875 36.5 34.5312 36.4063 33.875L35.8437 30.7812L35.2812 33.875C35.1875 34.625 34.7187 35.1875 34.1562 35.6562C33.5937 36.125 32.8437 36.4062 32.0937 36.4062C31.25 36.4062 30.5 36.3125 29.8438 35.8437C29.1875 35.4687 28.5313 34.8125 28.25 33.9687C28.25 34.9062 28.8125 35.75 29.4687 36.3125C30.125 36.875 31.1563 37.25 32 37.3438C32.9375 37.4375 33.875 37.1562 34.7187 36.5937C35.1875 36.3125 35.4687 35.9375 35.8437 35.4688C36.125 35.9375 36.5 36.3125 36.9687 36.5937C37.8125 37.1562 38.75 37.4375 39.6875 37.3438C40.625 37.3438 41.5625 36.9687 42.2187 36.3125C42.9687 35.75 43.4375 34.8125 43.4375 33.9687C43.1563 34.8125 42.5938 35.4687 41.8438 35.8437Z" fill="#4C5359"/>
<path d="M38.75 30.0312C38.1875 29.375 36.4063 29.2812 35.8438 29.2812C35.2813 29.2812 33.5 29.375 32.9375 30.0312C32.5625 30.5 32.8438 31.7187 33.9688 32.8437C34.625 33.5 35.2813 33.6875 35.8438 33.6875C36.4063 33.6875 37.0625 33.5 37.7188 32.8437C38.8438 31.7187 39.125 30.5 38.75 30.0312Z" fill="#4C5359"/>
<path d="M35.5625 54.875C35.5625 55.9063 33.4062 56.6563 30.6875 56.6563C27.9687 56.6563 25.8125 55.8125 25.8125 54.875C25.8125 53.8438 27.9687 54.9688 30.6875 54.9688C33.3125 54.9688 35.5625 53.9375 35.5625 54.875Z" fill="white"/>
<path d="M45.7813 54.875C45.7813 55.9063 43.625 56.6563 40.9063 56.6563C38.1875 56.6563 36.0312 55.8125 36.0312 54.875C36.0312 53.8438 38.1875 54.9688 40.9063 54.9688C43.625 54.9688 45.7813 53.9375 45.7813 54.875Z" fill="white"/>
<path d="M26.75 56.375L28.0625 54.125L27.6875 56.75L26.75 56.375Z" fill="#3E4347"/>
<path d="M30.0312 57.125L30.5 54.0312L30.9688 57.125H30.0312Z" fill="#3E4347"/>
<path d="M33.6875 56.75L33.3125 54.3125L34.625 56.4687L33.6875 56.75Z" fill="#3E4347"/>
<path d="M44 56.75L43.625 54.125L44.9375 56.375L44 56.75Z" fill="#3E4347"/>
<path d="M40.625 57.125L41.0938 54.0312L41.5625 57.125H40.625Z" fill="#3E4347"/>
<path d="M36.9688 56.4687L38.2813 54.3125L37.9062 56.75L36.9688 56.4687Z" fill="#3E4347"/>
</svg>
